<svg xmlns="http://www.w3.org/2000/svg" version="1.1" xmlns:xlink="http://www.w3.org/1999/xlink" xmlns:svgjs="http://svgjs.dev/svgjs" width="2000" height="1500" viewBox="0 0 2000 1500"><rect width="2000" height="1500" fill="#000000"></rect><g transform="matrix(0.4444444444444444,0,0,0.4444444444444444,555.5556208333335,250)"><svg viewBox="0 0 320 360" data-background-color="#00ffef" preserveAspectRatio="xMidYMid meet" height="2250" width="2000" xmlns="http://www.w3.org/2000/svg" xmlns:xlink="http://www.w3.org/1999/xlink"><g id="tight-bounds" transform="matrix(1,0,0,1,0.000023499999997511622,0)"><svg viewBox="0 0 320 360" height="360" width="320"><g><svg></svg></g><g><svg viewBox="0 0 320 360" height="360" width="320"><g><path transform="translate(-74.99272,-51.79039) scale(4.65793,4.65793)" d="M20.6 59.9l0.8 1-0.4-1.3c-0.1-0.6-0.8 0.1-0.4 0.3M21.5 59.3c0.3 0.5 0.6 1 0.6 1.5 0 0.7 0.6 1 1.1 1.2-0.7-0.8-1.1-3-1.7-2.7M59.9 16.9c1.7 0 3.3-0.2 5.1 0.2 4.4 1.1 8.1 3.3 10.6 6.4l7 11.2c0.3 2.8 0.9 5.9 0.8 9.3 0.7 0 0.6-1 1.4-1.2-0.8 2-1.2 4.5-1.4 7.4-0.5-1.6 0-4 0.1-5.3-0.7 1.1-1.1 0.3-1.1-0.2 0.1-0.8-0.3-0.7-0.6-1-1.1-1-1.8-2.1-2.6-3.8 0.5-1.3 0.6-3.2-1-4.2-0.5-0.3-1.1-0.8-1.4-1.6-0.4-1.1-1.1-2.4-0.9-4.1 0.1-0.5-1.5 1.1-2.4 0.4-3.9-2.7-7.8-5.8-12.5-8.4-2.5 0-4.3-0.9-5.2-2-0.8-1-0.2-2.3 1-2.4 0.7 0 1.5-0.2 2.1 0.2 0.1-0.4 0.5-0.9 1-0.9M50 14.6l0.2 0.1c1 0.2 1.5 1.6 2.6 1.1 0 0.7 0.1 1.4-0.1 1.9-0.3 0.8-1.2 0.8-1.9 0.8-6.7-0.4-10.6 2.4-14.7 4.8-1.1 0.7-2.3 1.2-3.2 2.1-4.3 4-9 7.7-10.1 15.1l-0.9 8.2c-0.1 0.9-1.1 1.8-0.9 2.9l0.7 4.9c-0.7-0.7-1.1 0.2-0.9 0.6 0.1 0.3 0.5 1.3 1.1 0.4 0.8 1.5 1.6 4.4 2.7 5.7 3.4 4 7.8 7.6 11.4 11.2 0.9-0.2 1.6-0.2 1.8-0.8 0.3 0.6-0.3 1.2-0.8 1.3 1.6 1 3.4 1.9 5.8 2.1 3.1 0.2 6 0.7 8.7 1.4 1.4-0.4 2.8-0.6 4.3-0.7 0.5 0 0.8-0.8 1.4-1l0.1-1c0.6 0.9 0.5-0.3 0.1-0.9 0.7 0.6 0.9 1.1 1.2 1.5 0-0.3 0.8-1.4 0.8-0.1l0.2-1.3c0.3-0.2 0.4 1.1 0.7 0.2 0.3-0.9 0.9-0.2 1.5-0.5-0.2 0.4-0.1 1.2 0.6 0.7l0.8-0.7c0.5 1.2 1.3 0.7 1.7 0.5 4.4-2.8 8.8-6.1 13-9.4l-0.1 1.3 0.5-1.6c0.5 0.5 0.9 0.1 1.1-0.2 0.6-1 1.4-2 2.7-2.9-1.6 4.3-3.5 7.7-5.9 10.5l-1 1.2c0 0.7-0.2 1.6-1 1.7-0.4 0.1-1.2-0.2-1.8 0.4-0.3 0.4 0.7 1.2-0.1 0.6-0.7-0.5-1.4 0-2.2 0.2-0.6 0.2 0.4 0.8 0.6 1.2 0.2 0.4 0.4 0.8 0.3 1.3l-1.1-1.2c-1.3 0.7-2.1 2-3.2 3-0.5 0.4-0.3 1.1-0.3 1.7-0.7 0-1.5-0.2-1.9 0.2-0.3 0.4-0.2 1-0.2 1.6-1-0.1-1.1-1.6-2-1.3-0.9 0.2-1.9 0.3-2.7 0.8 0.6 1.2-1 0.5-0.8 0.7-1.5-0.9-2.8-1.6-4.4-1-3.4-1.1-7.6-0.6-10.7-0.2 0-0.5 0.1-1-0.1-1.1-0.2 0.5-0.8 0.3-0.7 0.3-1.9-1.3-3.8-2.1-5.8-3.2-1.8 0.2-3.5-0.7-4-1.2-1.4-1.3-3-0.6-4.3-0.9-2.8-0.7-3.8-3.6-4.1-5.6-0.2-1-1-1.4-1.3-1.3-1.3-4.2-3.3-8-4.9-11.9-0.4-1-0.3-2-0.3-3.1 0.5 0.2 1 0.1 0.9-0.6-0.5-3.3-1.7-5.8-3-8.2 0.7-3.4 0.8-7.4 2.4-10.4 1.4-2.7 4-4.1 5.8-6.4 0.6-0.8 0.6-1.9 1.2-2.6 2-2 4-4.1 6.2-5.9 1-0.8 2.2 0 3.7-0.3 0.5-1.8 2.5-3.4 4.4-2.9 0.8 0.2 2.4-1.9 2.9-2.1 0.8-0.3 0.4 0.8 0.4 1.5 1.9-1.5 4.5-2.3 6.9-3.2" fill="#ffffff" fill-rule="nonzero" stroke="none" stroke-width="1" stroke-linecap="butt" stroke-linejoin="miter" stroke-miterlimit="10" stroke-dasharray="" stroke-dashoffset="0" font-family="none" font-weight="none" font-size="none" text-anchor="none" style="mix-blend-mode: normal" data-fill-palette-color="tertiary"></path></g><g transform="matrix(1,0,0,1,101.8066622476668,90)"><svg viewBox="0 0 116.38667550466641 180" height="180" width="116.38667550466641"><g><svg viewBox="0 0 116.38667550466641 180" height="180" width="116.38667550466641"><g><svg viewBox="0 0 192 296.9412078328017" height="180" width="116.38667550466641"><g transform="matrix(1,0,0,1,0,177.82215980758244)"><svg viewBox="0 0 192 119.11904802521927" height="119.11904802521927" width="192"><g id="textblocktransform"><svg viewBox="0 0 192 119.11904802521927" height="119.11904802521927" width="192" id="textblock"><g><svg viewBox="0 0 192 90.45554834523034" height="90.45554834523034" width="192"><g transform="matrix(1,0,0,1,0,0)"><svg width="192" viewBox="5 -35.15 77.05 36.3" height="90.45554834523034" data-palette-color="#010c80"><path d="M15.9-34.2Q20.3-34.2 22.93-31.25 25.55-28.3 25.55-23.5L25.55-23.5Q25.55-18.35 22.28-15.53 19-12.7 12.45-12.7L12.45-12.7Q9.9-12.7 8-12.8L8-12.8 8 0.05 5 0.05 5-34.2 15.9-34.2ZM13.05-15.5Q17.65-15.5 20.1-17.63 22.55-19.75 22.55-23.65L22.55-23.65Q22.55-27.3 20.55-29.35 18.55-31.4 15.2-31.4L15.2-31.4 8-31.4 8-15.65 9.8-15.6Q12.2-15.5 13.05-15.5L13.05-15.5ZM40.8 1.15Q38.3 1.15 35.75 0.08 33.2-1 31.27-2.9 29.35-4.8 28.7-7.2L28.7-7.2 31.25-8.2Q32.2-5.15 34.97-3.38 37.75-1.6 40.8-1.6L40.8-1.6Q43.1-1.6 45-2.58 46.9-3.55 48-5.33 49.1-7.1 49.1-9.35L49.1-9.35Q49.1-11.75 47.77-13.3 46.45-14.85 43.3-16.4L43.3-16.4Q39.05-18.45 36.85-19.75 34.65-21.05 33.25-22.83 31.85-24.6 31.85-27.05L31.85-27.05Q31.85-29.45 33.15-31.3 34.45-33.15 36.62-34.15 38.8-35.15 41.3-35.15L41.3-35.15Q43.4-35.15 45.22-34.38 47.05-33.6 48.07-32.23 49.1-30.85 49-29.15L49-29.15 46.2-29.3Q46.2-30.75 44.62-31.58 43.05-32.4 41.2-32.4L41.2-32.4Q38.6-32.4 36.72-30.9 34.85-29.4 34.85-27.2L34.85-27.2Q34.85-25.5 36-24.15 37.15-22.8 38.72-21.88 40.3-20.95 42.7-19.85L42.7-19.85Q43.2-19.6 43.75-19.35 44.3-19.1 44.8-18.8L44.8-18.8Q48.75-16.7 50.42-14.53 52.1-12.35 52.1-9.3L52.1-9.3Q52.1-6.25 50.52-3.88 48.95-1.5 46.35-0.18 43.75 1.15 40.8 1.15L40.8 1.15ZM76.8-17.9Q79.25-16.4 80.65-14.2 82.05-12 82.05-9.25L82.05-9.25Q82.05-6.15 80.32-3.7 78.6-1.25 75.35-0.2L75.35-0.2Q73.2 0.5 69.5 0.5L69.5 0.5Q64.2 0.5 62 0.25L62 0.25 59.4-0.05 59.4-34.75 70.4-34.75Q72.7-34.75 74.5-34.1L74.5-34.1Q77.35-33.1 78.92-30.9 80.5-28.7 80.5-25.7L80.5-25.7Q80.5-23.4 79.57-21.65 78.65-19.9 76.7-18.95L76.7-18.95Q76.2-18.7 75.2-18.4L75.2-18.4Q76.45-18.1 76.8-17.9L76.8-17.9ZM71.1-31.95L62.4-31.95 62.4-19.5 70.35-19.5Q73.55-19.5 75.52-21.15 77.5-22.8 77.5-25.9L77.5-25.9Q77.5-28.65 75.82-30.18 74.15-31.7 71.1-31.95L71.1-31.95ZM70-2.25Q74.25-2.25 76.65-4.05 79.05-5.85 79.05-9.25L79.05-9.25Q79.05-12.55 76.85-14.65 74.65-16.75 70.7-16.75L70.7-16.75 62.4-16.75 62.4-2.5 66.65-2.35 70-2.25Z" opacity="1" transform="matrix(1,0,0,1,0,0)" fill="#ffffff" class="wordmark-text-0" data-fill-palette-color="primary" id="text-0"></path></svg></g></svg></g><g transform="matrix(1,0,0,1,0,103.65518378195974)"><svg viewBox="0 0 192 15.46386424325954" height="15.46386424325954" width="192"><g transform="matrix(1,0,0,1,0,0)"><svg width="192" viewBox="5.05 -34.45 580.3900000000001 46.75" height="15.46386424325954" data-palette-color="#0080ff"><path d="M5.05 0L5.05-31.4 14.25-31.4Q19-31.4 22.5-29.46 26-27.53 27.93-24 29.85-20.48 29.85-15.7L29.85-15.7Q29.85-10.98 27.93-7.45 26-3.93 22.5-1.96 19 0 14.25 0L14.25 0 5.05 0ZM14.25-27.95L8.95-27.95 8.95-3.4 14.25-3.4Q17.8-3.4 20.36-5 22.93-6.6 24.31-9.39 25.7-12.18 25.7-15.7L25.7-15.7Q25.7-19.25 24.31-22.01 22.93-24.78 20.36-26.36 17.8-27.95 14.25-27.95L14.25-27.95ZM46.35 0.6L46.35 0.6Q43.25 0.6 40.81-0.99 38.37-2.58 36.96-5.4 35.55-8.22 35.55-11.9L35.55-11.9Q35.55-15.83 36.95-18.65 38.35-21.48 40.79-22.99 43.22-24.5 46.35-24.5L46.35-24.5Q49.07-24.5 51-23.4 52.92-22.3 54.1-20.43 55.27-18.55 55.73-16.19 56.2-13.83 56-11.3L56-11.3 38.7-11.3 38.7-13.7 53.42-13.7 52.27-12.95Q52.35-14.43 52.11-15.9 51.87-17.38 51.22-18.61 50.57-19.85 49.4-20.6 48.22-21.35 46.4-21.35L46.4-21.35Q44.1-21.35 42.55-20.18 41-19 40.22-17.09 39.45-15.18 39.45-12.95L39.45-12.95 39.45-11.35Q39.45-8.85 40.21-6.88 40.97-4.9 42.5-3.75 44.02-2.6 46.35-2.6L46.35-2.6Q48.67-2.6 50.17-3.73 51.67-4.85 52-7.05L52-7.05 56.05-7.05Q55.67-4.67 54.35-2.96 53.02-1.25 50.97-0.33 48.92 0.6 46.35 0.6ZM72.02 0.6L72.02 0.6Q68.92 0.6 66.48-0.99 64.05-2.58 62.63-5.4 61.22-8.22 61.22-11.9L61.22-11.9Q61.22-15.83 62.62-18.65 64.02-21.48 66.46-22.99 68.9-24.5 72.02-24.5L72.02-24.5Q74.75-24.5 76.67-23.4 78.59-22.3 79.77-20.43 80.95-18.55 81.41-16.19 81.87-13.83 81.67-11.3L81.67-11.3 64.37-11.3 64.37-13.7 79.09-13.7 77.95-12.95Q78.02-14.43 77.78-15.9 77.55-17.38 76.9-18.61 76.25-19.85 75.07-20.6 73.9-21.35 72.07-21.35L72.07-21.35Q69.77-21.35 68.22-20.18 66.67-19 65.89-17.09 65.12-15.18 65.12-12.95L65.12-12.95 65.12-11.35Q65.12-8.85 65.88-6.88 66.64-4.9 68.17-3.75 69.7-2.6 72.02-2.6L72.02-2.6Q74.34-2.6 75.84-3.73 77.34-4.85 77.67-7.05L77.67-7.05 81.72-7.05Q81.34-4.67 80.02-2.96 78.7-1.25 76.65-0.33 74.59 0.6 72.02 0.6ZM100.24 0.6L100.24 0.6Q97.62 0.6 95.68-0.6 93.74-1.8 92.69-4.11 91.64-6.43 91.64-9.75L91.64-9.75 93.29-9.75Q93.29-7.53 94.22-6 95.14-4.48 96.63-3.69 98.12-2.9 99.79-2.9L99.79-2.9Q101.59-2.9 103.24-3.94 104.89-4.98 105.94-7 106.99-9.03 106.99-12L106.99-12Q106.99-14.85 106.03-16.88 105.07-18.9 103.44-19.98 101.82-21.05 99.84-21.05L99.84-21.05Q98.14-21.05 96.64-20.23 95.14-19.4 94.22-17.81 93.29-16.23 93.29-13.9L93.29-13.9 91.64-13.9Q91.64-17.38 92.79-19.74 93.94-22.1 95.92-23.3 97.89-24.5 100.34-24.5L100.34-24.5Q103.14-24.5 105.57-23 107.99-21.5 109.49-18.7 110.99-15.9 110.99-12L110.99-12Q110.99-8.05 109.48-5.23 107.97-2.4 105.52-0.9 103.07 0.6 100.24 0.6ZM93.29 11.75L89.39 11.75 89.39-23.9 92.64-23.9 93.29-18.3 93.29 11.75ZM130.49-31.4L134.39-31.4 134.39-3.4 148.39-3.4 148.39 0 130.49 0 130.49-31.4ZM162.16 0.6L162.16 0.6Q159.06 0.6 156.62-0.99 154.19-2.58 152.77-5.4 151.36-8.22 151.36-11.9L151.36-11.9Q151.36-15.83 152.76-18.65 154.16-21.48 156.6-22.99 159.03-24.5 162.16-24.5L162.16-24.5Q164.88-24.5 166.81-23.4 168.74-22.3 169.91-20.43 171.09-18.55 171.55-16.19 172.01-13.83 171.81-11.3L171.81-11.3 154.51-11.3 154.51-13.7 169.24-13.7 168.09-12.95Q168.16-14.43 167.92-15.9 167.69-17.38 167.03-18.61 166.38-19.85 165.21-20.6 164.03-21.35 162.21-21.35L162.21-21.35Q159.91-21.35 158.36-20.18 156.81-19 156.03-17.09 155.26-15.18 155.26-12.95L155.26-12.95 155.26-11.35Q155.26-8.85 156.02-6.88 156.78-4.9 158.31-3.75 159.84-2.6 162.16-2.6L162.16-2.6Q164.49-2.6 165.99-3.73 167.49-4.85 167.81-7.05L167.81-7.05 171.86-7.05Q171.49-4.67 170.16-2.96 168.84-1.25 166.78-0.33 164.74 0.6 162.16 0.6ZM197.73 0L194.33 0 193.83-5.25 193.83-15.5Q193.83-18.73 192.46-20.14 191.08-21.55 188.33-21.55L188.33-21.55Q186.78-21.55 185.52-21.1 184.26-20.65 183.52-19.71 182.78-18.78 182.78-17.3L182.78-17.3 178.43-17.3Q178.43-19.9 179.71-21.49 180.98-23.08 183.22-23.79 185.46-24.5 188.33-24.5L188.33-24.5Q191.08-24.5 193.21-23.58 195.33-22.65 196.53-20.64 197.73-18.63 197.73-15.4L197.73-15.4 197.73 0ZM186.18 0.6L186.18 0.6Q183.23 0.6 181.31-0.45 179.38-1.5 178.43-3.18 177.48-4.85 177.48-6.7L177.48-6.7Q177.48-9.13 178.7-10.65 179.91-12.18 182.01-12.89 184.11-13.6 186.73-13.6L186.73-13.6Q188.61-13.6 190.5-13.23 192.38-12.85 194.18-12.2L194.18-12.2 194.18-9.75Q192.68-10.35 190.8-10.7 188.91-11.05 187.33-11.05L187.33-11.05Q184.93-11.05 183.28-10.06 181.63-9.08 181.63-6.7L181.63-6.7Q181.63-4.95 182.9-3.7 184.16-2.45 186.93-2.45L186.93-2.45Q188.88-2.45 190.45-3.36 192.01-4.28 192.92-5.65 193.83-7.03 193.83-8.4L193.83-8.4 194.78-8.4Q194.78-6 193.75-3.95 192.71-1.9 190.78-0.65 188.86 0.6 186.18 0.6ZM210.96 0L207.06 0 207.06-23.95 210.96-23.95 210.96 0ZM210.96-10.8L209.76-10.8Q209.76-15.35 210.63-18.36 211.51-21.38 213.19-22.86 214.88-24.35 217.31-24.35L217.31-24.35Q218.11-24.35 218.77-24.24 219.43-24.13 220.11-23.9L220.11-23.9 219.86-20.05Q219.16-20.28 218.33-20.44 217.51-20.6 216.86-20.6L216.86-20.6Q214.73-20.6 213.43-19.39 212.13-18.18 211.54-15.98 210.96-13.78 210.96-10.8L210.96-10.8ZM245.98 0L242.13 0 242.13-14.05Q242.13-17.48 240.49-19.26 238.85-21.05 236.03-21.05L236.03-21.05Q233.88-21.05 232.3-19.88 230.73-18.7 229.88-16.51 229.03-14.33 229.03-11.3L229.03-11.3 227.53-11.3Q227.53-15.48 228.63-18.43 229.73-21.38 231.84-22.94 233.95-24.5 236.98-24.5L236.98-24.5Q239.8-24.5 241.82-23.24 243.83-21.98 244.9-19.63 245.98-17.28 245.98-14.05L245.98-14.05 245.98 0ZM229.03 0L225.13 0 225.13-23.9 228.48-23.9 229.03-18.4 229.03 0ZM257.5-29.55L257.5-29.55Q256.3-29.55 255.6-30.24 254.9-30.93 254.9-32.05L254.9-32.05Q254.9-33.15 255.6-33.8 256.3-34.45 257.5-34.45L257.5-34.45Q258.7-34.45 259.4-33.8 260.1-33.15 260.1-32.05L260.1-32.05Q260.1-30.93 259.4-30.24 258.7-29.55 257.5-29.55ZM259.45 0L255.55 0 255.55-23.95 259.45-23.95 259.45 0ZM291.05 0L287.2 0 287.2-14.05Q287.2-17.48 285.56-19.26 283.92-21.05 281.1-21.05L281.1-21.05Q278.95-21.05 277.37-19.88 275.8-18.7 274.95-16.51 274.1-14.33 274.1-11.3L274.1-11.3 272.6-11.3Q272.6-15.48 273.7-18.43 274.8-21.38 276.91-22.94 279.02-24.5 282.05-24.5L282.05-24.5Q284.87-24.5 286.89-23.24 288.9-21.98 289.97-19.63 291.05-17.28 291.05-14.05L291.05-14.05 291.05 0ZM274.1 0L270.2 0 270.2-23.9 273.55-23.9 274.1-18.4 274.1 0ZM308.82 12.3L308.82 12.3Q305.15 12.3 302.45 11.26 299.75 10.23 298.26 8.49 296.77 6.75 296.77 4.65L296.77 4.65Q296.77 1.88 298.81 0.41 300.85-1.05 304.07-1.05L304.07-1.05 306.22 0.3Q303.52 0.3 302.05 1.43 300.57 2.55 300.57 4.5L300.57 4.5Q300.57 6.45 302.67 7.8 304.77 9.15 308.82 9.15L308.82 9.15Q311.82 9.15 314.08 8.29 316.35 7.43 317.61 6.04 318.87 4.65 318.87 3.05L318.87 3.05Q318.87 1.93 318.05 1.11 317.22 0.3 315.52 0.3L315.52 0.3 306.22 0.3Q303.8 0.3 302.03-0.44 300.27-1.18 299.32-2.38 298.37-3.58 298.37-5L298.37-5Q298.37-6.5 299.22-7.55 300.07-8.6 301.43-9.15 302.8-9.7 304.37-9.7L304.37-9.7 305.12-8.25Q304.37-8.25 303.61-7.91 302.85-7.58 302.33-6.91 301.82-6.25 301.82-5.25L301.82-5.25Q301.82-4.1 302.77-3.33 303.72-2.55 306.22-2.55L306.22-2.55 315.52-2.55Q318.9-2.55 320.83-1.13 322.77 0.3 322.77 2.85L322.77 2.85Q322.77 5.2 321.1 7.36 319.42 9.53 316.3 10.91 313.17 12.3 308.82 12.3ZM309.52-7L309.52-7Q306.77-7 304.56-8.1 302.35-9.2 301.06-11.18 299.77-13.15 299.77-15.75L299.77-15.75Q299.77-18.38 301.06-20.35 302.35-22.33 304.56-23.41 306.77-24.5 309.52-24.5L309.52-24.5Q312.2-24.5 314.38-23.41 316.57-22.33 317.87-20.35 319.17-18.38 319.17-15.75L319.17-15.75Q319.17-13.15 317.87-11.18 316.57-9.2 314.38-8.1 312.2-7 309.52-7ZM309.52-9.8L309.52-9.8Q312.27-9.8 313.8-11.5 315.32-13.2 315.32-15.75L315.32-15.75Q315.32-18.38 313.8-20.01 312.27-21.65 309.52-21.65L309.52-21.65Q306.8-21.65 305.23-20.01 303.67-18.38 303.67-15.75L303.67-15.75Q303.67-13.2 305.23-11.5 306.8-9.8 309.52-9.8ZM317.37-20.7L317.37-20.7 315.52-21.45Q315.52-23.55 316.35-25.14 317.17-26.73 318.7-27.61 320.22-28.5 322.32-28.5L322.32-28.5 322.02-24.65Q319.77-24.65 318.57-23.69 317.37-22.73 317.37-20.7ZM359.77 0L340.42 0 340.42-31.4 359.77-31.4 359.77-28.05 344.32-28.05 344.32-17.5 358.87-17.5 358.87-14.15 344.32-14.15 344.32-3.4 359.77-3.4 359.77 0ZM389.41 0L385.56 0 385.56-14.05Q385.56-17.48 383.93-19.26 382.29-21.05 379.46-21.05L379.46-21.05Q377.31-21.05 375.74-19.88 374.16-18.7 373.31-16.51 372.46-14.33 372.46-11.3L372.46-11.3 370.96-11.3Q370.96-15.48 372.06-18.43 373.16-21.38 375.28-22.94 377.39-24.5 380.41-24.5L380.41-24.5Q383.24-24.5 385.25-23.24 387.26-21.98 388.34-19.63 389.41-17.28 389.41-14.05L389.41-14.05 389.41 0ZM372.46 0L368.56 0 368.56-23.9 371.91-23.9 372.46-18.4 372.46 0ZM406.09 0.6L406.09 0.6Q404.14 0.6 402.59-0.15 401.04-0.9 400.14-2.4 399.24-3.9 399.24-6.15L399.24-6.15 399.24-30.55 403.09-30.55 403.09-6.25Q403.09-2.55 406.54-2.55L406.54-2.55Q407.56-2.55 408.52-2.78 409.49-3 410.69-3.45L410.69-3.45 411.24-0.65Q409.96-0.1 408.7 0.25 407.44 0.6 406.09 0.6ZM410.64-21.2L395.39-21.2 395.39-23.9 410.64-23.9 410.64-21.2ZM438.38 0L434.53 0 434.53-14.05Q434.53-17.48 432.9-19.26 431.26-21.05 428.43-21.05L428.43-21.05Q426.28-21.05 424.71-19.88 423.13-18.7 422.28-16.51 421.43-14.33 421.43-11.3L421.43-11.3 419.93-11.3Q419.93-15.48 421.03-18.43 422.13-21.38 424.25-22.94 426.36-24.5 429.38-24.5L429.38-24.5Q432.21-24.5 434.22-23.24 436.23-21.98 437.31-19.63 438.38-17.28 438.38-14.05L438.38-14.05 438.38 0ZM421.43 0L417.53 0 417.53-34.1 421.43-34.1 421.43 0ZM463.96 0L463.96-23.95 467.86-23.95 467.86 0 463.96 0ZM447.01-8.75L447.01-23.95 450.91-23.95 450.91-9.05Q450.91-6.05 452.37-4.5 453.83-2.95 456.56-2.95L456.56-2.95Q458.81-2.95 460.47-4.15 462.13-5.35 463.04-7.46 463.96-9.58 463.96-12.3L463.96-12.3 465.41-12.3Q465.41-8.28 464.24-5.43 463.08-2.58 460.97-1.06 458.86 0.45 456.01 0.45L456.01 0.45Q453.31 0.45 451.28-0.55 449.26-1.55 448.13-3.59 447.01-5.63 447.01-8.75L447.01-8.75ZM486.58 0.6L486.58 0.6Q483.1 0.6 480.78-0.39 478.45-1.38 477.25-3.11 476.05-4.85 475.98-7.1L475.98-7.1 479.73-7.1Q479.85-4.83 481.57-3.69 483.28-2.55 486.23-2.55L486.23-2.55Q487.78-2.55 489.08-3.05 490.38-3.55 491.15-4.42 491.93-5.3 491.93-6.4L491.93-6.4Q491.93-7.8 490.9-8.6 489.88-9.4 487.63-10L487.63-10 482.98-11.5Q479.95-12.45 478.34-14.11 476.73-15.78 476.73-18.1L476.73-18.1Q476.73-21 479.28-22.75 481.83-24.5 485.98-24.5L485.98-24.5Q490.38-24.5 492.8-22.7 495.23-20.9 495.33-18.2L495.33-18.2 491.48-18.2Q491.25-19.78 489.88-20.59 488.5-21.4 485.98-21.4L485.98-21.4Q483.55-21.4 482.19-20.31 480.83-19.23 480.83-17.9L480.83-17.9Q480.83-15.43 485.08-14.25L485.08-14.25 489.83-12.65Q492.9-11.73 494.54-10.23 496.18-8.72 496.18-6.4L496.18-6.4Q496.18-4.6 495-3 493.83-1.4 491.68-0.4 489.53 0.6 486.58 0.6ZM506.45-29.55L506.45-29.55Q505.25-29.55 504.55-30.24 503.85-30.93 503.85-32.05L503.85-32.05Q503.85-33.15 504.55-33.8 505.25-34.45 506.45-34.45L506.45-34.45Q507.65-34.45 508.35-33.8 509.05-33.15 509.05-32.05L509.05-32.05Q509.05-30.93 508.35-30.24 507.65-29.55 506.45-29.55ZM508.4 0L504.5 0 504.5-23.95 508.4-23.95 508.4 0ZM537.35 0L533.95 0 533.45-5.25 533.45-15.5Q533.45-18.73 532.07-20.14 530.7-21.55 527.95-21.55L527.95-21.55Q526.4-21.55 525.14-21.1 523.87-20.65 523.14-19.71 522.4-18.78 522.4-17.3L522.4-17.3 518.05-17.3Q518.05-19.9 519.32-21.49 520.6-23.08 522.84-23.79 525.07-24.5 527.95-24.5L527.95-24.5Q530.7-24.5 532.82-23.58 534.95-22.65 536.15-20.64 537.35-18.63 537.35-15.4L537.35-15.4 537.35 0ZM525.8 0.6L525.8 0.6Q522.85 0.6 520.92-0.45 519-1.5 518.05-3.18 517.1-4.85 517.1-6.7L517.1-6.7Q517.1-9.13 518.31-10.65 519.52-12.18 521.62-12.89 523.72-13.6 526.35-13.6L526.35-13.6Q528.22-13.6 530.11-13.23 532-12.85 533.8-12.2L533.8-12.2 533.8-9.75Q532.3-10.35 530.41-10.7 528.52-11.05 526.95-11.05L526.95-11.05Q524.55-11.05 522.9-10.06 521.25-9.08 521.25-6.7L521.25-6.7Q521.25-4.95 522.51-3.7 523.77-2.45 526.55-2.45L526.55-2.45Q528.5-2.45 530.06-3.36 531.62-4.28 532.54-5.65 533.45-7.03 533.45-8.4L533.45-8.4 534.4-8.4Q534.4-6 533.36-3.95 532.32-1.9 530.4-0.65 528.47 0.6 525.8 0.6ZM555.27 0.6L555.27 0.6Q551.79 0.6 549.47-0.39 547.14-1.38 545.95-3.11 544.75-4.85 544.67-7.1L544.67-7.1 548.42-7.1Q548.54-4.83 550.26-3.69 551.97-2.55 554.92-2.55L554.92-2.55Q556.47-2.55 557.77-3.05 559.07-3.55 559.85-4.42 560.62-5.3 560.62-6.4L560.62-6.4Q560.62-7.8 559.6-8.6 558.57-9.4 556.32-10L556.32-10 551.67-11.5Q548.64-12.45 547.03-14.11 545.42-15.78 545.42-18.1L545.42-18.1Q545.42-21 547.97-22.75 550.52-24.5 554.67-24.5L554.67-24.5Q559.07-24.5 561.5-22.7 563.92-20.9 564.02-18.2L564.02-18.2 560.17-18.2Q559.95-19.78 558.57-20.59 557.2-21.4 554.67-21.4L554.67-21.4Q552.25-21.4 550.88-20.31 549.52-19.23 549.52-17.9L549.52-17.9Q549.52-15.43 553.77-14.25L553.77-14.25 558.52-12.65Q561.6-11.73 563.23-10.23 564.87-8.72 564.87-6.4L564.87-6.4Q564.87-4.6 563.7-3 562.52-1.4 560.37-0.4 558.22 0.6 555.27 0.6ZM580.29 0.6L580.29 0.6Q578.34 0.6 576.79-0.15 575.24-0.9 574.34-2.4 573.44-3.9 573.44-6.15L573.44-6.15 573.44-30.55 577.29-30.55 577.29-6.25Q577.29-2.55 580.74-2.55L580.74-2.55Q581.77-2.55 582.73-2.78 583.69-3 584.89-3.45L584.89-3.45 585.44-0.65Q584.17-0.1 582.9 0.25 581.64 0.6 580.29 0.6ZM584.84-21.2L569.59-21.2 569.59-23.9 584.84-23.9 584.84-21.2Z" opacity="1" transform="matrix(1,0,0,1,0,0)" fill="#ffffff" class="slogan-text-1" data-fill-palette-color="secondary" id="text-1"></path></svg></g></svg></g></svg></g></svg></g><g transform="matrix(1,0,0,1,44.23241674907826,0)"><svg viewBox="0 0 103.53516650184348 164.62252437085306" height="164.62252437085306" width="103.53516650184348"><g><svg xmlns="http://www.w3.org/2000/svg" xmlns:xlink="http://www.w3.org/1999/xlink" version="1.1" x="0" y="0" viewBox="21.05499999999999 3.9769999999999968 57.89 92.04599999999999" enable-background="new 0 0 100 100" xml:space="preserve" height="164.62252437085306" width="103.53516650184348" class="icon-icon-0" data-fill-palette-color="accent" id="icon-0"><circle cx="50" cy="32.922" r="8.3" fill="#ffffff" data-fill-palette-color="accent"></circle><polygon points="58.499,47.974 58.499,72.734 71.997,72.734 49.999,96.023 28.001,72.734 41.5,72.734 41.5,47.974 " fill="#ffffff" data-fill-palette-color="accent"></polygon><path d="M39.329 59.834V46.176H60.67v13.66c10.705-4.248 18.275-14.696 18.275-26.914 0-15.986-12.959-28.945-28.944-28.945-15.987 0-28.946 12.959-28.946 28.945C21.055 45.139 28.624 55.588 39.329 59.834zM50.001 21.959c6.054 0 10.963 4.909 10.963 10.963 0 6.055-4.909 10.964-10.963 10.964-6.055 0-10.965-4.909-10.965-10.964C39.036 26.868 43.946 21.959 50.001 21.959z" fill="#ffffff" data-fill-palette-color="accent"></path></svg></g></svg></g><g></g></svg></g></svg></g></svg></g></svg></g><defs></defs></svg><rect width="320" height="360" fill="none" stroke="none" visibility="hidden"></rect></g></svg></g></svg>